<svg width="200" height="200" xmlns="http://www.w3.org/2000/svg">
  <rect width="200" height="200" fill="white"/>
  <!-- 二维码外框 -->
  <rect x="20" y="20" width="60" height="60" fill="black"/>
  <rect x="30" y="30" width="40" height="40" fill="white"/>
  <rect x="40" y="40" width="20" height="20" fill="black"/>
  
  <rect x="120" y="20" width="60" height="60" fill="black"/>
  <rect x="130" y="30" width="40" height="40" fill="white"/>
  <rect x="140" y="40" width="20" height="20" fill="black"/>
  
  <rect x="20" y="120" width="60" height="60" fill="black"/>
  <rect x="30" y="130" width="40" height="40" fill="white"/>
  <rect x="40" y="140" width="20" height="20" fill="black"/>
  
  <!-- 二维码中心标志 -->
  <circle cx="100" cy="100" r="25" fill="white" stroke="black" stroke-width="2"/>
  <path d="M90 100 Q100 80 110 100 T130 100" fill="none" stroke="black" stroke-width="3"/>
  <circle cx="100" cy="100" r="5" fill="black"/>
  
  <!-- 二维码点阵 -->
  <rect x="20" y="90" width="10" height="10" fill="black"/>
  <rect x="40" y="90" width="10" height="10" fill="black"/>
  <rect x="60" y="90" width="10" height="10" fill="black"/>
  <rect x="80" y="90" width="10" height="10" fill="black"/>
  <rect x="100" y="90" width="10" height="10" fill="black"/>
  <rect x="120" y="90" width="10" height="10" fill="black"/>
  <rect x="140" y="90" width="10" height="10" fill="black"/>
  <rect x="160" y="90" width="10" height="10" fill="black"/>
  <rect x="180" y="90" width="10" height="10" fill="black"/>
  
  <rect x="20" y="110" width="10" height="10" fill="black"/>
  <rect x="40" y="110" width="10" height="10" fill="black"/>
  <rect x="60" y="110" width="10" height="10" fill="black"/>
  <rect x="80" y="110" width="10" height="10" fill="black"/>
  <rect x="100" y="110" width="10" height="10" fill="black"/>
  <rect x="120" y="110" width="10" height="10" fill="black"/>
  <rect x="140" y="110" width="10" height="10" fill="black"/>
  <rect x="160" y="110" width="10" height="10" fill="black"/>
  <rect x="180" y="110" width="10" height="10" fill="black"/>
  
  <!-- 更多点阵 -->
  <rect x="90" y="20" width="10" height="10" fill="black"/>
  <rect x="90" y="40" width="10" height="10" fill="black"/>
  <rect x="90" y="60" width="10" height="10" fill="black"/>
  <rect x="90" y="80" width="10" height="10" fill="black"/>
  <rect x="90" y="120" width="10" height="10" fill="black"/>
  <rect x="90" y="140" width="10" height="10" fill="black"/>
  <rect x="90" y="160" width="10" height="10" fill="black"/>
  <rect x="90" y="180" width="10" height="10" fill="black"/>
  
  <rect x="110" y="20" width="10" height="10" fill="black"/>
  <rect x="110" y="40" width="10" height="10" fill="black"/>
  <rect x="110" y="60" width="10" height="10" fill="black"/>
  <rect x="110" y="80" width="10" height="10" fill="black"/>
  <rect x="110" y="120" width="10" height="10" fill="black"/>
  <rect x="110" y="140" width="10" height="10" fill="black"/>
  <rect x="110" y="160" width="10" height="10" fill="black"/>
  <rect x="110" y="180" width="10" height="10" fill="black"/>
</svg>